<svg xmlns="http://www.w3.org/2000/svg" width="650" height="945" viewBox="0 0 55.0 80.0">
  <defs>
    <style type="text/css">
      .border { fill: none; stroke: #7f8c8d; stroke-width: 2.8; }
      .title  { font: 700 4.0px "Inter", "Arial", "Helvetica", sans-serif; fill: #111; }
      .subtitle { font: 600 2.0px "Inter", "Arial", "Helvetica", sans-serif; fill: #111; }
      .content{ font: 400 2.0px "Inter", "Arial", "Helvetica", sans-serif; fill: #111; }
      .section{ font: 600 2.8px "Inter", "Arial", "Helvetica", sans-serif; fill: #111; }
      .num    { font-weight: 700; }
      .footer { font: 600 4.2px "Inter", "Arial", "Helvetica", sans-serif; fill: #111; }
      .divider{ stroke: #D6DCE6; stroke-width: 0.28; }
      .muted  { fill: #E6EAF2; }
    </style>
  </defs>

  <!-- Rahmen im Gestaltungsbereich -->
  <rect x="1.4" y="1.4" width="52.2" height="77.2" rx="1.6" ry="1.6" class="border" />

  <!-- Inhalt: skaliert wie bei der Vorlage -->
  <g transform="translate(3.8,3.8) scale(0.77)">

    <text x="30.5" y="5.8" text-anchor="middle" class="title">📘 Kapiert?!</text>
    <text x="30.5" y="10.2" text-anchor="middle" class="subtitle">Kommunikation erleben – Missverständnisse verstehen</text>

    <line x1="0" y1="13.5" x2="61" y2="13.5" class="divider" />

    <!-- Worum geht's -->
    <text x="0" y="20.5" class="section">Worum geht’s?</text>
    <text x="0" y="26.5" class="content">
      <tspan x="2" dy="0">Ein Kartenset, das Kommunikation erfahrbar macht und</tspan>
      <tspan x="2" dy="4">Kommunikationsmodelle spielerisch vermittelt.</tspan>
    </text>

    <!-- Für wen -->
    <text x="0" y="36.5" class="section">Für wen?</text>
    <text x="0" y="42.5" class="content">
      <tspan x="2" dy="0">Trainer*innen, Teams und Privatpersonen – überall, wo </tspan>
      <tspan x="2" dy="4">Kommunikationsmuster sichtbar werden sollen.</tspan>
    </text>

    <!-- Was bringt's -->
    <text x="0" y="52.5" class="section">Was bringt’s?</text>
    <text x="0" y="58.5" class="content">
      <tspan x="2" dy="0">Ihr probiert Sende- und Hörweisen aus, erkennt, wie Botschaften</tspan>
      <tspan x="2" dy="4">sich verändern, und schafft gemeinsam mehr Klarheit.</tspan>
    </text>

    <!-- Kartentypen -->
    <text x="0" y="68.5" class="section">Ausführliche Anleitung</text>
    <text x="0" y="74.5" class="content">
      <tspan x="2" dy="0">🔗 http://bit.ly/4h6rIqX</tspan>
    </text>

    <line x1="0" y1="83" x2="61" y2="83" class="divider" />
    <text x="30.5" y="90" text-anchor="middle" class="footer">Anleitung</text>
  </g>
  <g transform="translate(37,55) scale(0.15,0.15)">
  <svg xmlns="http://www.w3.org/2000/svg" viewBox="0 0 33 33" shape-rendering="crispEdges"><path fill="#ffffff" d="M0 0h33v33H0z"/><path stroke="#000000" d="M4 4.5h7m1 0h1m2 0h1m2 0h1m1 0h1m1 0h7M4 5.5h1m5 0h1m1 0h1m1 0h1m1 0h3m3 0h1m5 0h1M4 6.5h1m1 0h3m1 0h1m4 0h1m1 0h1m1 0h1m2 0h1m1 0h3m1 0h1M4 7.5h1m1 0h3m1 0h1m1 0h1m3 0h1m1 0h3m1 0h1m1 0h3m1 0h1M4 8.5h1m1 0h3m1 0h1m2 0h1m1 0h5m2 0h1m1 0h3m1 0h1M4 9.5h1m5 0h1m3 0h4m2 0h1m1 0h1m5 0h1M4 10.5h7m1 0h1m1 0h1m1 0h1m1 0h1m1 0h1m1 0h7M12 11.5h3m1 0h1M4 12.5h1m1 0h2m1 0h3m1 0h2m1 0h1m1 0h3m1 0h1m2 0h1m1 0h2M4 13.5h2m1 0h2m2 0h6m1 0h1m1 0h2m1 0h1m3 0h1M4 14.5h1m1 0h2m1 0h2m1 0h3m3 0h1m4 0h2M4 15.5h2m1 0h3m1 0h1m1 0h2m1 0h3m4 0h4M4 16.5h2m1 0h1m1 0h2m2 0h4m1 0h3m1 0h1m1 0h1m1 0h3M6 17.5h1m8 0h3m1 0h1m1 0h4m3 0h1M5 18.5h4m1 0h1m2 0h1m1 0h1m1 0h1m3 0h4m1 0h2M4 19.5h1m1 0h1m2 0h1m2 0h4m4 0h1m4 0h1m2 0h1M6 20.5h1m2 0h5m2 0h1m1 0h11M12 21.5h2m6 0h1m3 0h1m3 0h1M4 22.5h7m1 0h1m4 0h2m1 0h1m1 0h1m1 0h5M4 23.5h1m5 0h1m1 0h2m1 0h1m1 0h2m1 0h1m3 0h1M4 24.5h1m1 0h3m1 0h1m2 0h1m3 0h2m1 0h5m2 0h1M4 25.5h1m1 0h3m1 0h1m1 0h1m1 0h1m6 0h2m1 0h1m1 0h3M4 26.5h1m1 0h3m1 0h1m1 0h1m1 0h1m3 0h1m1 0h8M4 27.5h1m5 0h1m4 0h5m1 0h2m1 0h1m1 0h1M4 28.5h7m1 0h4m6 0h7"/></svg>
</g>
</svg>
